#!OML:ASF F:\VICON\USERDATA\INSTALL\rory3\rory3.ASF
:FULLY-SPECIFIED
:DEGREES
471
root 2.56195 21.2654 1.9876 143.719 71.9956 -211.985
lowerback -17.0624 -7.17035 -3.79518
upperback -5.00963 -8.32383 -1.9389
thorax 4.35018 -3.9643 -1.63653
lowerneck 1.76501 -16.1057 -18.6158
upperneck 38.4716 -21.0482 1.0869
head 15.6627 -11.008 0.653331
rclavicle 2.18266e-013 8.42847e-014
rhumerus 328.952 -56.3599 -325.058
rradius 14.7091
rwrist 76.0146
rhand 9.54834 -5.08802
rfingers 7.12502
rthumb 34.6978 -31.7141
lclavicle 2.18266e-013 8.42847e-014
lhumerus -4.23771 -17.205 -10.2758
lradius 19.7847
lwrist -41.9316
lhand 1.69076 27.6293
lfingers 7.12502
lthumb 27.2088 55.6872
rfemur -21.3947 42.3513 314.173
rtibia 27.4212
rfoot 86.8098 207.362
rtoes 63.1444
lfemur 13.3431 -1.24869 21.4491
ltibia 70.34
lfoot -118.326 -172.059
ltoes -14.1894
472
root 2.60675 21.2278 2.14591 133.331 70.8951 -222.207
lowerback -17.2735 -7.45062 -7.62376
upperback -4.70755 -7.90874 -2.87619
thorax 5.14222 -3.76401 -0.526999
lowerneck 1.7443 -16.12 -18.1484
upperneck 38.3418 -21.2137 1.27175
head 15.5664 -11.0111 0.64964
rclavicle 1.43523e-013 4.92986e-014
rhumerus 326.748 -56.5012 -322.949
rradius 14.673
rwrist 77.0414
rhand 10.4043 -8.61631
rfingers 7.12502
rthumb 35.5097 -35.0518
lclavicle 1.43523e-013 4.92986e-014
lhumerus -4.65951 -16.5413 -9.22308
lradius 19.7618
lwrist -41.0997
lhand 1.37325 27.889
lfingers 7.12502
lthumb 26.905 55.9941
rfemur -19.9507 37.828 314.067
rtibia 26.5695
rfoot 91.0055 203.098
rtoes 63.2517
lfemur 14.1289 -4.20976 17.2969
ltibia 68.5905
lfoot -119.697 -173.428
ltoes -19.2621
473
root 2.63322 21.1982 2.29223 128.686 70.9198 -226.573
lowerback -17.4158 -7.68819 -9.07017
upperback -4.45566 -7.90304 -3.18156
thorax 5.62913 -3.77806 -0.117842
lowerneck 1.66386 -15.9931 -17.761
upperneck 38.1346 -21.1278 1.41097
head 15.4195 -10.9274 0.681309
rclavicle 3.22031e-014 -3.26007e-014
rhumerus 324.977 -56.9942 -321.442
rradius 14.7675
rwrist 78.3002
rhand 10.3673 -6.30648
rfingers 7.12502
rthumb 35.4746 -32.7504
lclavicle 3.22031e-014 -3.26007e-014
lhumerus -5.09518 -13.2404 -7.66735
lradius 18.9419
lwrist -42.9512
lhand 0.901131 27.9083
lfingers 7.12502
lthumb 26.4532 56.0821
rfemur -18.5002 33.9423 316.493
rtibia 25.7291
rfoot 94.2509 199.194
rtoes 63.2096
lfemur 14.4143 -7.03285 16.0077
ltibia 66.8159
lfoot -121.272 -172.135
ltoes -19.225
474
root 2.62019 21.1904 2.4732 133.649 73.5221 -221.741
lowerback -17.4943 -7.81008 -7.36128
upperback -4.37833 -8.45645 -2.36207
thorax 5.68515 -4.0576 -0.316426
lowerneck 1.29414 -15.8724 -17.1013
upperneck 38.0081 -21.0581 1.59541
head 15.3376 -10.8006 0.666027
rclavicle -1.94809e-014 -1.82882e-014
rhumerus 323.872 -56.1859 -320.964
rradius 14.7651
rwrist 78.0183
rhand 9.9912 -5.20039
rfingers 7.12502
rthumb 35.118 -31.7288
lclavicle -1.94809e-014 -1.82882e-014
lhumerus -5.73506 -15.3347 -6.83253
lradius 19.0232
lwrist -40.2824
lhand 2.1251 27.8248
lfingers 7.12502
lthumb 27.6242 55.8169
rfemur -17.5379 30.6216 323.419
rtibia 25.0018
rfoot 95.7316 196.813
rtoes 63.1831
lfemur 12.7321 -8.9742 20.6409
ltibia 65.3272
lfoot -122.218 -170.906
ltoes -16.0552
475
root 2.68522 21.123 2.60885 122.851 72.5505 -231.9
lowerback -17.4943 -7.98595 -10.6094
upperback -3.92099 -8.00429 -3.01715
thorax 6.48148 -3.88622 0.785749
lowerneck 1.35648 -15.6014 -17.0252
upperneck 37.5782 -20.9373 2.33237
head 15.1879 -10.6786 0.993966
rclavicle -3.02153e-014 8.74653e-015
rhumerus 323.799 -54.8857 -321.428
rradius 14.6474
rwrist 77.0481
rhand 9.36121 -4.73671
rfingers 7.12502
rthumb 34.5202 -31.4035
lclavicle -3.02153e-014 8.74653e-015
lhumerus -6.56795 -17.7529 -5.53973
lradius 18.9699
lwrist -37.1113
lhand 2.11513 28.0762
lfingers 7.12502
lthumb 27.6147 56.0699
rfemur -16.404 23.7333 324.174
rtibia 24.3149
rfoot 101.249 189.508
rtoes 63.2227
lfemur 14.3812 -11.1557 17.0119
ltibia 63.357
lfoot -124.455 -168.197
ltoes -14.3518
476
root 2.69417 21.0498 2.78071 119.07 73.3224 -235.378
lowerback -17.1791 -8.05391 -10.8162
upperback -3.8516 -8.07031 -3.3625
thorax 6.37161 -3.91774 0.542344
lowerneck 1.51575 -15.1517 -16.6532
upperneck 37.6019 -20.6197 3.11893
head 15.1769 -10.4234 1.34028
rclavicle 2.3059e-014 3.4191e-014
rhumerus 323.233 -53.5463 -322.266
rradius 14.6013
rwrist 76.2491
rhand 8.89534 -4.59237
rfingers 7.12502
rthumb 34.0779 -31.3588
lclavicle 2.3059e-014 3.4191e-014
lhumerus -7.05006 -15.1622 -4.97413
lradius 18.6408
lwrist -39.6863
lhand 1.81711 27.542
lfingers 7.12502
lthumb 27.3297 55.5809
rfemur -15.596 19.3913 327.553
rtibia 23.7938
rfoot 104.54 182.281
rtoes 63.2382
lfemur 14.1838 -12.5597 17.8946
ltibia 61.6009
lfoot -125.755 -167.231
ltoes -14.8272
477
root 2.69 20.9613 2.95206 114.007 73.8633 -240.167
lowerback -16.5904 -8.13317 -11.6243
upperback -3.87825 -8.10019 -3.61375
thorax 6.09875 -3.93169 0.766252
lowerneck 1.22011 -15.012 -15.6461
upperneck 38.0264 -20.4298 2.85344
head 15.2239 -10.2367 1.11437
rclavicle -9.54166e-015 1.66979e-014
rhumerus 322.345 -52.4513 -322.618
rradius 14.5639
rwrist 75.3053
rhand 8.55022 -4.55587
rfingers 7.12502
rthumb 33.75 -31.3948
lclavicle -9.54166e-015 1.66979e-014
lhumerus -7.64429 -12.7991 -4.28856
lradius 18.5103
lwrist -42.5501
lhand 1.78592 27.0588
lfingers 7.12502
lthumb 27.2998 55.1024
rfemur -14.7345 14.7945 330.521
rtibia 22.8524
rfoot 107.56 175.109
rtoes 62.4743
lfemur 14.0081 -13.62 18.4686
ltibia 59.7497
lfoot -126.65 -164.402
ltoes -11.081
478
root 2.68217 20.8645 3.11326 109.165 74.6659 -244.732
lowerback -15.9799 -8.03484 -12.0008
upperback -3.78568 -7.99565 -3.78826
thorax 5.88426 -3.88612 0.872689
lowerneck 0.871024 -15.0068 -14.8418
upperneck 38.2211 -20.5822 3.03302
head 15.3103 -10.1724 1.02446
rclavicle -6.16232e-015 7.95139e-015
rhumerus 320.485 -52.3525 -321.685
rradius 14.3827
rwrist 75.2839
rhand 8.57037 -4.86902
rfingers 7.12502
rthumb 33.7692 -31.7037
lclavicle -6.16232e-015 7.95139e-015
lhumerus -8.02566 -12.8758 -3.45152
lradius 18.4571
lwrist -42.7535
lhand 1.73816 26.5587
lfingers 7.12502
lthumb 27.2541 54.6095
rfemur -13.9351 10.2952 334.035
rtibia 22.137
rfoot 111.609 166.591
rtoes 62.6696
lfemur 13.6504 -14.3219 19.5794
ltibia 58.1414
lfoot -127.643 -162.061
ltoes -7.58357
479
root 2.67596 20.7578 3.25976 104.903 75.792 -248.835
lowerback -15.4709 -7.89238 -11.6902
upperback -3.70168 -7.96119 -3.76195
thorax 5.66227 -3.87358 0.803269
lowerneck 0.500224 -14.8986 -14.7257
upperneck 38.3575 -20.6689 3.67115
head 15.547 -10.1136 1.20983
rclavicle 1.98785e-014 3.4191e-014
rhumerus 318.817 -52.0125 -320.809
rradius 14.1779
rwrist 74.8676
rhand 8.47895 -5.48564
rfingers 7.12502
rthumb 33.6823 -32.3394
lclavicle 1.98785e-014 3.4191e-014
lhumerus -8.31437 -11.1356 -2.29328
lradius 18.2912
lwrist -45.4798
lhand 2.70371 25.5979
lfingers 7.12502
lthumb 28.1774 53.5002
rfemur -13.2971 6.04878 338.039
rtibia 21.8696
rfoot 116.315 157.952
rtoes 62.9303
lfemur 12.8961 -14.6168 21.4066
ltibia 56.7472
lfoot -128.548 -160.745
ltoes -6.05902
480
root 2.65142 20.6342 3.40661 97.3881 75.6317 -256.387
lowerback -14.9211 -7.71853 -12.5932
upperback -3.70558 -7.65699 -4.03925
thorax 5.40119 -3.72236 1.12312
lowerneck 0.079642 -14.8187 -14.6582
upperneck 38.4956 -20.8203 4.38046
head 15.8291 -10.0766 1.41609
rclavicle -4.6118e-014 -2.54444e-014
rhumerus 319.496 -48.3056 -323.255
rradius 14.0323
rwrist 70.18
rhand 7.86882 -4.04756
rfingers 7.12502
rthumb 33.1023 -31.0261
lclavicle -4.6118e-014 -2.54444e-014
lhumerus -8.31912 -8.28143 -1.17324
lradius 17.7422
lwrist -48.6052
lhand 2.32744 25.0464
lfingers 7.12502
lthumb 27.8177 53.0073
rfemur -13.4201 1.58977 340.544
rtibia 22.0875
rfoot 123.308 147.894
rtoes 62.6546
lfemur 12.2874 -14.3235 21.6092
ltibia 55.499
lfoot -129.366 -160.507
ltoes -6.80048
481
root 2.62122 20.4739 3.56946 91.4482 75.9836 -262.229
lowerback -14.1769 -7.73504 -13.1284
upperback -3.58941 -7.72856 -4.07687
thorax 5.19356 -3.76544 1.42422
lowerneck -0.602226 -14.7007 -14.3514
upperneck 38.5948 -20.8482 4.87665
head 16.0634 -9.97665 1.50942
rclavicle -4.11484e-014 -4.69132e-014
rhumerus 319.82 -45.6466 -325.469
rradius 13.9358
rwrist 66.0108
rhand 7.92668 -4.31009
rfingers 7.12502
rthumb 33.1573 -31.277
lclavicle -4.11484e-014 -4.69132e-014
lhumerus -8.56662 -5.42168 -0.271339
lradius 17.1499
lwrist -51.1074
lhand 0.877957 25.1219
lfingers 7.12502
lthumb 26.431 53.2991
rfemur -13.3242 -1.71196 343.918
rtibia 22.7111
rfoot 131.033 140.305
rtoes 62.0258
lfemur 11.0008 -13.0889 23.9216
ltibia 54.4025
lfoot -131.311 -158.279
ltoes -0.745845
482
root 2.58666 20.316 3.72082 85.3406 76.0731 -268.496
lowerback -13.6011 -7.91947 -13.7085
upperback -3.4827 -7.99904 -3.99886
thorax 5.11551 -3.91034 1.80401
lowerneck -1.74118 -14.5005 -13.9314
upperneck 38.6392 -20.6597 5.17864
head 16.2941 -9.78177 1.512
rclavicle -1.21259e-014 -5.56597e-015
rhumerus 315.387 -50.2785 -320.97
rradius 13.872
rwrist 70.1391
rhand 7.98635 -3.48513
rfingers 7.12502
rthumb 33.214 -30.4399
lclavicle -1.21259e-014 -5.56597e-015
lhumerus -9.40012 -4.23684 0.612
lradius 16.8791
lwrist -51.4298
lhand -0.0580524 25.619
lfingers 7.12502
lthumb 25.5348 53.9277
rfemur -13.6287 -4.51816 347.065
rtibia 23.6859
rfoot 140.883 133.518
rtoes 61.3588
lfemur 9.91737 -13.0797 24.5411
ltibia 53.4243
lfoot -133.819 -155.172
ltoes 2.65427
483
root 2.5471 20.1308 3.86692 78.9778 75.9801 -275.235
lowerback -13.1759 -7.80418 -13.8837
upperback -3.4915 -7.8947 -4.18031
thorax 4.85645 -3.85008 1.7809
lowerneck -2.54863 -14.4408 -13.6078
upperneck 38.6057 -20.8549 5.87081
head 16.55 -9.72019 1.64609
rclavicle 3.66758e-014 3.57812e-014
rhumerus 314.212 -49.2578 -321.248
rradius 13.7281
rwrist 68.2378
rhand 8.12366 -3.11888
rfingers 7.12502
rthumb 33.3446 -30.0457
lclavicle 3.66758e-014 3.57812e-014
lhumerus -9.65116 -9.3848 1.8704
lradius 17.6824
lwrist -45.556
lhand 0.592161 27.0193
lfingers 7.12502
lthumb 26.1574 55.2373
rfemur -14.4072 -7.09851 350.102
rtibia 25.0674
rfoot 154.916 128.384
rtoes 60.4523
lfemur 8.48909 -12.3427 25.511
ltibia 52.7087
lfoot -135.312 -153.447
ltoes 4.62275
484
root 2.50554 19.9246 4.01477 71.9347 75.8942 -282.798
lowerback -12.8909 -7.76806 -14.0002
upperback -3.55128 -7.89503 -4.20025
thorax 4.64759 -3.84225 1.86033
lowerneck -3.17807 -14.3047 -13.4711
upperneck 38.5354 -20.9847 6.7233
head 16.8018 -9.64379 1.90457
rclavicle -5.83433e-014 3.22031e-014
rhumerus 313.389 -48.4514 -321.898
rradius 13.5847
rwrist 66.4572
rhand 8.35097 -3.10021
rfingers 7.12502
rthumb 33.5607 -29.9804
lclavicle -5.83433e-014 3.22031e-014
lhumerus -9.90178 -8.65986 2.40206
lradius 17.5861
lwrist -45.6017
lhand 0.874266 26.3147
lfingers 7.12502
lthumb 26.4275 54.4925
rfemur -15.3196 -8.99077 353.449
rtibia 26.3909
rfoot 170.186 126.57
rtoes 58.6171
lfemur 6.98719 -11.1053 26.9661
ltibia 52.121
lfoot -135.926 -153.163
ltoes 4.65019
485
root 2.44499 19.6609 4.14345 63.361 76.0211 -291.955
lowerback -12.5797 -7.73115 -13.678
upperback -3.60997 -7.98181 -4.02549
thorax 4.41069 -3.88045 1.90232
lowerneck -3.80758 -14.0976 -13.122
upperneck 38.3262 -20.982 7.45227
head 16.9044 -9.50695 2.11435
rclavicle -4.87022e-015 1.74931e-014
rhumerus 312.578 -48.4188 -322.494
rradius 13.3702
rwrist 65.5022
rhand 8.61064 -3.21379
rfingers 7.12502
rthumb 33.8074 -30.0401
lclavicle -4.87022e-015 1.74931e-014
lhumerus -10.1977 -7.90169 2.93263
lradius 17.4432
lwrist -45.948
lhand 1.43709 25.7568
lfingers 7.12502
lthumb 26.9661 53.8524
rfemur -16.4813 -10.2088 357.535
rtibia 27.9177
rfoot 181.572 127.365
rtoes 56.3265
lfemur 5.48008 -9.81646 29.1995
ltibia 51.7596
lfoot -137.973 -150.771
ltoes 12.6797
